<?xml version="1.0" encoding="UTF-8" standalone="no"?>
<!-- Created with Inkscape (http://www.inkscape.org/) -->

<svg
   xmlns:dc="http://purl.org/dc/elements/1.1/"
   xmlns:cc="http://creativecommons.org/ns#"
   xmlns:rdf="http://www.w3.org/1999/02/22-rdf-syntax-ns#"
   xmlns:svg="http://www.w3.org/2000/svg"
   xmlns="http://www.w3.org/2000/svg"
   xmlns:sodipodi="http://sodipodi.sourceforge.net/DTD/sodipodi-0.dtd"
   xmlns:inkscape="http://www.inkscape.org/namespaces/inkscape"
   width="147mm"
   height="93mm"
   viewBox="0 0 147 93"
   version="1.1"
   id="svg8"
   inkscape:version="0.92.3 (2405546, 2018-03-11)"
   sodipodi:docname="doggo.svg">
  <defs
     id="defs2" />
  <sodipodi:namedview
     id="base"
     pagecolor="#ffffff"
     bordercolor="#666666"
     borderopacity="1.0"
     inkscape:pageopacity="0.0"
     inkscape:pageshadow="2"
     inkscape:zoom="1.5497024"
     inkscape:cx="277.79528"
     inkscape:cy="200.77003"
     inkscape:document-units="mm"
     inkscape:current-layer="g844"
     showgrid="false"
     showguides="true"
     inkscape:window-width="1366"
     inkscape:window-height="717"
     inkscape:window-x="0"
     inkscape:window-y="26"
     inkscape:window-maximized="1"
     inkscape:measure-start="0,0"
     inkscape:measure-end="0,0" />
  <metadata
     id="metadata5">
    <rdf:RDF>
      <cc:Work
         rdf:about="">
        <dc:format>image/svg+xml</dc:format>
        <dc:type
           rdf:resource="http://purl.org/dc/dcmitype/StillImage" />
        <dc:title />
      </cc:Work>
    </rdf:RDF>
  </metadata>
  <g
     inkscape:label="Layer 1"
     inkscape:groupmode="layer"
     id="layer1"
     transform="translate(0,-204)">
    <g
       id="g844">
      <g
         transform="translate(-11.759859,122.94398)"
         id="g4762">
        <path
           style="fill:#ffffff;fill-opacity:1;stroke:#ffffff;stroke-width:0.26458332px;stroke-linecap:butt;stroke-linejoin:miter;stroke-opacity:1"
           d="m 117.39814,85.355942 3.27405,3.073599 3.4745,7.249686 -7.11605,0.868624 -1.13589,-4.409945 0.4009,-5.779704 z"
           id="path4746"
           inkscape:connector-curvature="0" />
        <path
           style="fill:#ffd693;fill-opacity:1;stroke:#ffe594;stroke-width:0.26458332px;stroke-linecap:butt;stroke-linejoin:miter;stroke-opacity:1"
           d="m 101.66265,151.00402 c 1.77066,-0.0334 6.5481,2.17156 6.5481,2.17156 l 1.10249,2.40543 -7.41673,1.80407 h -0.6807 l -29.620987,1.06908 -24.321526,0.86862 -15.969353,-1.5368 -4.376539,-40.95905 0.868624,-0.90204 4.202017,0.95764 10.902252,4.11049 9.75651,4.97275 7.027995,3.00019 4.275854,2.79938 z"
           id="path4710"
           inkscape:connector-curvature="0"
           sodipodi:nodetypes="cccccccccccccccc" />
        <path
           style="fill:#ffe593;fill-opacity:1;stroke:#ffe594;stroke-width:0.26458332px;stroke-linecap:butt;stroke-linejoin:miter;stroke-opacity:1"
           d="m 129.62221,96.01116 4.9255,1.35835 -0.14174,2.102493 -5.04362,-2.126115 z"
           id="path4712"
           inkscape:connector-curvature="0" />
        <path
           style="fill:#ffe593;fill-opacity:1;stroke:#000000;stroke-width:0.26458332px;stroke-linecap:butt;stroke-linejoin:miter;stroke-opacity:1"
           d="m 122.1808,152.75483 c 0.10858,-0.0543 0.0593,-0.0472 0.14174,-0.0472 0.0157,0 0.0318,0.003 0.0472,0 0.0244,-0.005 0.0465,-0.0187 0.0709,-0.0236 0.0386,-0.008 0.0793,0.006 0.11812,0 0.0246,-0.004 0.0463,-0.0195 0.0709,-0.0236 0.0233,-0.004 0.0473,0 0.0709,0 0.0394,0 0.0787,0 0.11812,0 0.0394,0 0.0787,0 0.11812,0 0.0157,0 0.0318,-0.003 0.0472,0 0.0244,0.005 0.0465,0.0187 0.0709,0.0236 0.0155,0.003 0.0315,0 0.0473,0 0.0236,0 0.0473,0 0.0709,0 0.008,0 0.0166,-0.004 0.0236,0 0.01,0.005 0.0136,0.0186 0.0236,0.0236 0.007,0.004 0.0157,0 0.0236,0 0.008,0.008 0.0137,0.0186 0.0236,0.0236 0.007,0.004 0.0166,-0.004 0.0236,0 0.01,0.005 0.0136,0.0187 0.0236,0.0236 0.0141,0.007 0.0332,-0.007 0.0472,0 0.01,0.005 0.0136,0.0187 0.0236,0.0236 0.007,0.004 0.0166,-0.004 0.0236,0 0.0284,0.0142 0.0425,0.0567 0.0709,0.0709 0.007,0.004 0.0166,-0.004 0.0236,0 0.01,0.005 0.0137,0.0186 0.0236,0.0236 0.007,0.004 0.0166,-0.004 0.0236,0 0.0233,0.0116 0.0712,0.0829 0.0945,0.0945 0.007,0.004 0.0181,-0.006 0.0236,0 0.006,0.006 -0.006,0.0181 0,0.0236 0.006,0.006 0.018,-0.006 0.0236,0 0.006,0.006 -0.006,0.018 0,0.0236 0.006,0.006 0.018,-0.006 0.0236,0 0.006,0.006 -0.004,0.0166 0,0.0236 0.006,0.0126 0.0409,0.0346 0.0473,0.0472 0.0163,0.0326 -0.0286,0.0211 0.0236,0.0472 0.007,0.004 0.018,-0.006 0.0236,0 0.006,0.006 -0.006,0.018 0,0.0236 0.006,0.006 0.018,-0.006 0.0236,0 0.006,0.006 -0.004,0.0166 0,0.0236 0.003,0.006 0.0646,0.0677 0.0709,0.0709 0.007,0.004 0.0166,-0.004 0.0236,0 0.01,0.005 0.0157,0.0157 0.0236,0.0236 0.008,0.008 0.0186,0.0137 0.0236,0.0236 0.004,0.007 -0.006,0.018 0,0.0236 0.006,0.006 0.0181,-0.006 0.0236,0 0.006,0.006 -0.006,0.018 0,0.0236 0.006,0.006 0.0181,-0.006 0.0236,0 0.006,0.006 -0.004,0.0166 0,0.0236 0.005,0.01 0.0186,0.0136 0.0236,0.0236 0.004,0.007 -0.006,0.0181 0,0.0236 0.006,0.006 0.018,-0.006 0.0236,0 0.006,0.006 -0.004,0.0166 0,0.0236 0.005,0.01 0.0187,0.0137 0.0236,0.0236 0.007,0.0141 -0.007,0.0332 0,0.0472 0.005,0.01 0.0187,0.0137 0.0236,0.0236 0.007,0.0148 -0.007,0.0796 0,0.0945 0.005,0.01 0.0186,0.0137 0.0236,0.0236 0.003,0.006 0,0.125 0,0.14174 0,0.11025 0,0.22049 0,0.33073 0,0.11812 0,0.23624 0,0.35435 0,0.0394 0,0.0787 0,0.11812 0,0.008 0,0.0157 0,0.0236 0,0.008 0.004,0.0166 0,0.0236 -0.01,0.0199 -0.0373,0.0273 -0.0472,0.0472 -0.004,0.007 0.004,0.0166 0,0.0236 -0.01,0.0199 -0.0349,0.0287 -0.0472,0.0473 -0.01,0.0147 -0.0139,0.0326 -0.0236,0.0472 -0.0123,0.0185 -0.0373,0.0273 -0.0472,0.0472 -0.0111,0.0223 -0.0125,0.0486 -0.0236,0.0709 -0.005,0.01 -0.0157,0.0157 -0.0236,0.0236 -0.0157,0.0157 -0.0339,0.0294 -0.0472,0.0472 -0.0106,0.0141 -0.0146,0.0322 -0.0236,0.0473 -0.0146,0.0243 -0.0315,0.0472 -0.0472,0.0709 -0.0157,0.0236 -0.0291,0.0491 -0.0472,0.0709 -0.0941,0.11293 -0.0404,0.0336 -0.14175,0.11811 -0.0767,0.0639 -0.13593,0.14872 -0.21261,0.21261 -0.0218,0.0182 -0.0473,0.0315 -0.0709,0.0473 -0.0561,0.0374 -0.11409,0.0742 -0.16536,0.11812 -0.004,0.003 -0.14027,0.14082 -0.14174,0.14174 -0.036,0.0225 -0.0794,0.03 -0.11812,0.0473 -0.0322,0.0143 -0.0605,0.038 -0.0945,0.0472 -0.0537,0.0146 -0.11292,0.005 -0.16536,0.0236 -0.0598,0.0214 -0.10701,0.0695 -0.16536,0.0945 -0.18725,0.0803 -0.39477,0.0578 -0.59059,0.0945 -0.0563,0.0106 -0.10915,0.036 -0.16537,0.0472 -0.0622,0.0125 -0.12624,0.014 -0.18899,0.0236 -0.0397,0.006 -0.0785,0.017 -0.11811,0.0236 -0.0549,0.009 -0.11135,0.0101 -0.16537,0.0236 -0.0411,0.0103 -0.0775,0.0351 -0.11812,0.0473 -0.0385,0.0115 -0.0787,0.0157 -0.11811,0.0236 -0.0394,0.008 -0.0782,0.0192 -0.11812,0.0236 -0.0704,0.008 -0.14209,-0.007 -0.21261,0 -0.04,0.004 -0.0782,0.0196 -0.11812,0.0236 -0.0392,0.004 -0.0787,0 -0.11812,0 -0.0551,0 -0.11024,0 -0.16536,0 -0.19686,0 -0.39373,0 -0.59059,0 -0.0315,0 -0.063,0 -0.0945,0 -0.0394,0 -0.0795,-0.008 -0.11812,0 -0.0416,0.008 -0.0767,0.038 -0.11812,0.0472 -0.0615,0.0137 -0.12648,-0.008 -0.18899,0 -0.0322,0.004 -0.0628,0.0166 -0.0945,0.0236 -0.3242,0.072 0.0326,-0.0161 -0.18899,0.0472 -0.0312,0.009 -0.0633,0.0147 -0.0945,0.0236 -0.0624,0.0178 -0.0793,0.0294 -0.14174,0.0472 -0.0312,0.009 -0.0647,0.0108 -0.0945,0.0236 -0.0261,0.0112 -0.0455,0.0345 -0.0709,0.0472 -0.0281,0.014 -0.14265,0.0435 -0.16536,0.0472 -0.0155,0.003 -0.0318,-0.003 -0.0472,0 -0.0244,0.005 -0.0473,0.0157 -0.0709,0.0236 -0.0236,0.008 -0.0473,0.0157 -0.0709,0.0236 -0.0236,0.008 -0.0462,0.0201 -0.0709,0.0236 -0.0624,0.009 -0.12648,-0.008 -0.18899,0 -0.0322,0.004 -0.063,0.0157 -0.0945,0.0236 -0.0315,0.008 -0.063,0.0157 -0.0945,0.0236 -0.0315,0.008 -0.0623,0.019 -0.0945,0.0236 -0.0234,0.003 -0.0473,0 -0.0709,0 -0.0236,0.008 -0.0465,0.0187 -0.0709,0.0236 -0.0309,0.006 -0.0639,-0.008 -0.0945,0 -0.0171,0.004 -0.03,0.0202 -0.0472,0.0236 -0.0231,0.005 -0.0472,0 -0.0709,0 -0.008,0 -0.016,-0.002 -0.0236,0 -0.25693,0.0857 0.0623,-0.0125 -0.11812,0.0236 -0.0488,0.01 -0.0926,0.0391 -0.14174,0.0473 -0.0466,0.008 -0.0951,-0.008 -0.14174,0 -0.0491,0.008 -0.0929,0.0375 -0.14174,0.0472 -0.0232,0.005 -0.048,-0.006 -0.0709,0 -0.0242,0.006 -0.0467,0.0176 -0.0709,0.0236 -0.008,0.002 -0.0157,0 -0.0236,0 -0.0236,0 -0.0476,-0.004 -0.0709,0 -0.0246,0.004 -0.0465,0.0187 -0.0709,0.0236 -0.0309,0.006 -0.0639,-0.008 -0.0945,0 -0.0171,0.004 -0.0305,0.0181 -0.0472,0.0236 -0.0149,0.005 -0.0755,0 -0.0945,0 -0.0787,0 -0.15749,0 -0.23623,0 -0.0709,0 -0.14174,0 -0.21262,0 -0.0236,0 -0.0485,0.007 -0.0709,0 -0.0106,-0.004 -0.0137,-0.0186 -0.0236,-0.0236 -0.007,-0.004 -0.0782,0 -0.0945,0 -0.0787,0 -0.15749,0 -0.23624,0 -0.0473,0 -0.0945,0 -0.14174,0 -0.0236,0 -0.0477,0.005 -0.0709,0 -0.0173,-0.003 -0.03,-0.0202 -0.0473,-0.0236 -0.18021,0 0.0186,0.0105 -0.11812,-0.0236 -0.0174,-0.004 -0.10427,0.007 -0.11811,0 -0.01,-0.005 -0.0128,-0.0209 -0.0236,-0.0236 -0.0458,-0.0115 -0.0951,0.008 -0.14174,0 -0.0246,-0.004 -0.0463,-0.0195 -0.0709,-0.0236 -0.0233,-0.004 -0.0477,0.005 -0.0709,0 -0.0173,-0.003 -0.0302,-0.0193 -0.0473,-0.0236 -0.0153,-0.004 -0.0323,0.005 -0.0472,0 -0.0106,-0.004 -0.0136,-0.0187 -0.0236,-0.0236 -0.009,-0.004 -0.10168,0 -0.11811,0 -0.0866,0 -0.17324,0 -0.25986,0 -0.0124,0 -0.0883,0.003 -0.0945,0 -0.01,-0.005 -0.0136,-0.0187 -0.0236,-0.0236 -0.007,-0.004 -0.0157,0 -0.0236,0 -0.008,0 -0.0157,0 -0.0236,0 -0.0473,0 -0.0945,0 -0.14174,0 -0.0106,0 -0.0637,0.004 -0.0709,0 -0.01,-0.005 -0.0136,-0.0186 -0.0236,-0.0236 -0.007,-0.004 -0.0157,0 -0.0236,0 -0.008,0 -0.0157,0 -0.0236,0 -0.0164,0 -0.10958,0.004 -0.11812,0 -0.01,-0.005 -0.0136,-0.0186 -0.0236,-0.0236 -0.0143,-0.007 -0.12739,0.007 -0.14174,0 -0.01,-0.005 -0.0136,-0.0187 -0.0236,-0.0236 -0.0128,-0.006 -0.088,0.006 -0.0945,0 -0.006,-0.006 0.006,-0.018 0,-0.0236 -0.005,-0.005 -0.0615,0.005 -0.0709,0 -0.01,-0.005 -0.0136,-0.0187 -0.0236,-0.0236 -0.006,-0.003 -0.125,0 -0.14174,0 -0.008,0 -0.0166,0.004 -0.0236,0 -0.0584,-0.0292 0.008,-0.0236 -0.0472,-0.0236 -0.0106,0 -0.0637,0.004 -0.0709,0 -0.0199,-0.01 -0.0273,-0.0373 -0.0472,-0.0473 -0.0141,-0.007 -0.0332,0.007 -0.0472,0 -0.01,-0.005 -0.0137,-0.0186 -0.0236,-0.0236 -0.0141,-0.007 -0.0332,0.007 -0.0472,0 -0.0199,-0.01 -0.0273,-0.0373 -0.0472,-0.0472 -0.007,-0.004 -0.0157,0 -0.0236,0 -0.008,-0.008 -0.0136,-0.0187 -0.0236,-0.0236 -0.007,-0.004 -0.0166,0.004 -0.0236,0 -0.01,-0.005 -0.0157,-0.0157 -0.0236,-0.0236 -0.008,-0.008 -0.0187,-0.0137 -0.0236,-0.0236 -0.004,-0.007 0.006,-0.018 0,-0.0236 -0.006,-0.006 -0.0166,0.004 -0.0236,0 -0.006,-0.003 -0.0677,-0.0646 -0.0709,-0.0709 -0.004,-0.007 0.006,-0.018 0,-0.0236 -0.006,-0.006 -0.0166,0.004 -0.0236,0 -0.0983,-0.0492 0.0253,0.002 -0.0236,-0.0473 -0.006,-0.006 -0.0181,0.006 -0.0236,0 -0.006,-0.006 0.004,-0.0166 0,-0.0236 -0.005,-0.01 -0.0174,-0.0144 -0.0236,-0.0236 -0.01,-0.0147 -0.0139,-0.0326 -0.0236,-0.0472 -0.006,-0.009 -0.0174,-0.0144 -0.0236,-0.0236 -0.0312,-0.0469 -0.0534,-0.113 -0.0709,-0.16537 -0.008,-0.0236 -0.0195,-0.0463 -0.0236,-0.0709 -0.004,-0.0233 0,-0.0472 0,-0.0709 0,-0.0236 0,-0.0472 0,-0.0709 0,-0.0236 0,-0.0472 0,-0.0709 0,-0.0236 -0.003,-0.0475 0,-0.0709 0.005,-0.0321 0.0157,-0.063 0.0236,-0.0945 0.008,-0.0315 0.0122,-0.0641 0.0236,-0.0945 0.0397,-0.10595 0.12197,-0.19412 0.18899,-0.28348 0.0578,-0.0771 0.10871,-0.15423 0.18899,-0.21261 0.0427,-0.0311 0.0968,-0.0432 0.14174,-0.0709 0.0577,-0.0355 0.10728,-0.0833 0.16537,-0.11812 0.0733,-0.044 0.32841,-0.15971 0.40159,-0.18899 0.2185,-0.0874 0.3368,-0.11817 0.56697,-0.18898 0.10237,-0.0315 0.20595,-0.0593 0.30711,-0.0945 0.0801,-0.0279 0.15372,-0.0748 0.23623,-0.0945 0.0846,-0.0201 0.17384,-0.0107 0.25986,-0.0236 0.0718,-0.0108 0.14112,-0.0346 0.21261,-0.0472 0.0625,-0.011 0.12599,-0.0157 0.18899,-0.0236 0.0709,-0.008 0.14239,-0.0112 0.21261,-0.0236 0.0639,-0.0113 0.12549,-0.0336 0.18899,-0.0473 0.0468,-0.01 0.0949,-0.0136 0.14174,-0.0236 0.0635,-0.0136 0.12504,-0.036 0.18899,-0.0472 0.046,-0.005 0.3464,-0.0375 0.4016,-0.0472 0.0715,-0.0126 0.141,-0.0353 0.21261,-0.0472 0.0703,-0.0117 0.14239,-0.0112 0.21261,-0.0236 0.064,-0.0113 0.12517,-0.0353 0.18899,-0.0472 0.17247,-0.0323 0.24429,-0.0187 0.42522,-0.0472 0.0717,-0.0113 0.14112,-0.0346 0.21261,-0.0472 0.0625,-0.011 0.12628,-0.0137 0.18899,-0.0236 0.087,-0.0137 0.17256,-0.0359 0.25986,-0.0472 0.18805,-0.0245 0.37867,-0.0247 0.56696,-0.0472 0.74399,-0.0893 -0.0907,-0.0137 0.56697,-0.0709 0.6927,-0.0602 -0.0883,0.0203 0.51972,-0.0709 0.0783,-0.0118 0.15806,-0.0113 0.23623,-0.0236 0.0717,-0.0113 0.14112,-0.0346 0.21261,-0.0472 0.0625,-0.011 0.12599,-0.0157 0.18899,-0.0236 0.0709,-0.0157 0.14126,-0.0339 0.21261,-0.0473 0.0547,-0.0103 0.11111,-0.0111 0.16537,-0.0236 0.0485,-0.0112 0.0932,-0.036 0.14174,-0.0472 0.0807,-0.0186 0.22405,-0.0246 0.3071,-0.0473 0.0409,-0.0112 0.0772,-0.0361 0.11812,-0.0472 0.16449,-0.0449 0.10891,-0.002 0.25986,-0.0472 0.0406,-0.0122 0.0779,-0.0338 0.11812,-0.0473 0.16359,-0.0545 0.0254,0.009 0.21261,-0.0472 0.0406,-0.0122 0.0784,-0.0324 0.11812,-0.0472 0.182,-0.0683 -0.058,0.0272 0.16536,-0.0473 0.0167,-0.006 0.0309,-0.0171 0.0473,-0.0236 0.048,-0.0192 0.0766,-0.0195 0.11811,-0.0472 0.009,-0.006 0.0131,-0.0201 0.0236,-0.0236 0.0149,-0.005 0.0323,0.005 0.0472,0 0.0211,-0.007 0.0273,-0.0373 0.0472,-0.0473 0.007,-0.004 0.0255,0.008 0.0236,0 -0.009,-0.0342 -0.0754,-0.0734 -0.0472,-0.0945 0.0174,-0.12655 0.11556,0.0485 0.16536,0.0236 0.0199,-0.01 0.0273,-0.0373 0.0473,-0.0473 0.007,-0.004 0.018,0.006 0.0236,0 0.006,-0.006 0.006,-0.018 0,-0.0236 -0.006,-0.006 -0.0157,0 -0.0236,0 -0.008,0 -0.0157,0 -0.0236,0 -0.008,0 -0.0166,-0.004 -0.0236,0 -0.01,0.005 -0.0136,0.0187 -0.0236,0.0236 -0.007,0.004 -0.0166,-0.004 -0.0236,0 -0.01,0.005 -0.0127,0.0214 -0.0236,0.0236 -0.0309,0.006 -0.063,0 -0.0945,0 z"
           id="path4702"
           inkscape:connector-curvature="0" />
        <path
           style="fill:#ffd693;fill-opacity:1;stroke:#000000;stroke-width:0.26458332px;stroke-linecap:butt;stroke-linejoin:miter;stroke-opacity:1"
           d="m 25.265346,158.2473 c -0.0254,0.0409 -0.06083,0.0726 -0.09449,0.10631 -0.0039,0.004 -0.0079,0.008 -0.01181,0.0118 -0.0039,0.004 -0.0093,0.007 -0.01181,0.0118 -0.0018,0.004 0.0018,0.008 0,0.0118 -0.0025,0.005 -0.0093,0.007 -0.01181,0.0118 -0.0018,0.004 0.0018,0.008 0,0.0118 -0.0025,0.005 -0.0093,0.007 -0.01181,0.0118 -0.0018,0.004 0.0018,0.008 0,0.0118 -0.0025,0.005 -0.0093,0.007 -0.01181,0.0118 -0.0018,0.004 0.0028,0.009 0,0.0118 -0.0028,0.003 -0.009,-0.003 -0.01181,0 -4.77e-4,5.3e-4 0,0.0429 0,0.0472 0,0.0236 0,0.0472 0,0.0709 0,0.005 -0.0018,0.0318 0,0.0354 0.0025,0.005 0.0093,0.007 0.01181,0.0118 0.0035,0.007 -0.0035,0.0166 0,0.0236 0.0025,0.005 0.0093,0.007 0.01181,0.0118 0.0018,0.004 -0.0018,0.008 0,0.0118 0.0025,0.005 0.0093,0.007 0.01181,0.0118 0.0037,0.007 -0.0037,0.0398 0,0.0472 0.0025,0.005 0.0093,0.007 0.01181,0.0118 0.0018,0.004 -0.0018,0.008 0,0.0118 0.0025,0.005 0.0093,0.007 0.01181,0.0118 0.0035,0.007 -0.0035,0.0166 0,0.0236 0.0025,0.005 0.0093,0.007 0.01181,0.0118 0.0018,0.004 -0.0028,0.009 0,0.0118 0.0028,0.003 0.009,-0.003 0.01181,0 0.0028,0.003 -0.0018,0.008 0,0.0118 0.0027,0.005 0.0403,0.0403 0.04725,0.0472 0.0069,0.007 0.04178,0.0445 0.04725,0.0472 0.0035,0.002 0.0083,-0.002 0.01181,0 0.0075,0.004 0.04978,0.0498 0.05906,0.0591 0.02362,0.0236 0.04725,0.0472 0.07087,0.0709 0.0079,0.008 0.01575,0.0157 0.02362,0.0236 0.0039,0.004 0.0068,0.009 0.01181,0.0118 0.08397,0.042 -0.0131,-0.0184 0.07087,0.0236 0.0127,0.006 0.02274,0.0173 0.03543,0.0236 0.02533,0.0127 0.07023,0.0182 0.09449,0.0236 0.08308,0.0185 0.01363,0.004 0.08268,0.0236 0.03956,0.0113 0.07974,0.0201 0.118118,0.0354 0.0082,0.003 0.01545,0.009 0.02362,0.0118 0.01156,0.005 0.0243,0.006 0.03544,0.0118 0.05406,0.027 -0.05012,-0.005 0.03543,0.0236 0.0037,0.001 0.0081,-0.001 0.01181,0 0.02138,-0.007 0.02197,0.0191 0.03543,0.0236 0.0075,0.002 0.01598,-0.002 0.02362,0 0.0085,0.002 0.01575,0.008 0.02363,0.0118 0.02332,0.0117 0.04852,0.022 0.07087,0.0354 0.01217,0.007 0.02274,0.0173 0.03544,0.0236 0.01114,0.006 0.0243,0.006 0.03543,0.0118 0.06854,0.0343 -1.5e-4,0.0162 0.08268,0.0472 0.0152,0.006 0.0317,0.007 0.04725,0.0118 0.09841,0.0295 0.04167,0.0211 0.141742,0.0354 0.03142,0.004 0.06382,0.004 0.09449,0.0118 0.02897,0.008 0.0545,0.0252 0.08268,0.0354 0.02668,0.01 0.08086,0.0173 0.106307,0.0236 0.01206,0.003 0.02347,0.008 0.03544,0.0118 0.01561,0.004 0.03315,0.004 0.04725,0.0118 0.0145,0.008 0.02093,0.0271 0.03544,0.0354 0.0141,0.008 0.03185,0.007 0.04725,0.0118 0.0084,0.003 0.01574,0.008 0.02363,0.0118 0.0079,0.004 0.0163,0.007 0.02363,0.0118 0.0046,0.003 0.0068,0.009 0.0118,0.0118 0.01114,0.006 0.02476,0.005 0.03543,0.0118 0.0096,0.006 0.01471,0.0169 0.02363,0.0236 0.007,0.005 0.01574,0.008 0.02363,0.0118 0.0079,0.004 0.01527,0.009 0.02363,0.0118 0.0154,0.005 0.03185,0.007 0.04725,0.0118 0.0084,0.003 0.01545,0.009 0.02363,0.0118 0.0354,0.0142 0.04348,0.0124 0.08268,0.0236 0.01196,0.003 0.02347,0.008 0.03543,0.0118 0.03122,0.009 0.0628,0.0166 0.0945,0.0236 0.0392,0.009 0.07851,0.017 0.118118,0.0236 0.02746,0.005 0.05556,0.006 0.08268,0.0118 0.06827,0.0157 0.08537,0.0347 0.153551,0.0591 0.02699,0.01 0.05512,0.0157 0.08268,0.0236 0.02756,0.008 0.05466,0.0176 0.08268,0.0236 0.02722,0.006 0.05556,0.006 0.08268,0.0118 0.02426,0.006 0.04652,0.0184 0.07087,0.0236 0.03104,0.007 0.06337,0.006 0.09449,0.0118 0.02811,0.006 0.05512,0.0157 0.08268,0.0236 0.0315,0.008 0.06258,0.0177 0.0945,0.0236 0.0624,0.0117 0.126588,0.0119 0.188987,0.0236 0.03191,0.006 0.06266,0.0172 0.09449,0.0236 0.0546,0.0109 0.110921,0.012 0.165365,0.0236 0.02803,0.006 0.05457,0.018 0.08268,0.0236 0.03113,0.006 0.06307,0.007 0.0945,0.0118 0.02371,0.003 0.04716,0.008 0.07087,0.0118 0.03142,0.005 0.06337,0.006 0.0945,0.0118 0.02811,0.006 0.05465,0.0176 0.08268,0.0236 0.07284,0.0156 0.12464,0.0116 0.2008,0.0236 0.03585,0.006 0.07056,0.0173 0.106304,0.0236 0.04755,0.008 0.116533,0.0114 0.165365,0.0236 0.04725,0.0118 0.06497,0.0236 0.106307,0.0354 0.01561,0.004 0.0315,0.008 0.04725,0.0118 0.01574,0.004 0.03118,0.01 0.04725,0.0118 0.01169,0.002 0.02487,-0.005 0.03544,0 0.0079,0.004 0.0056,0.0174 0.0118,0.0236 0.0024,0.002 0.03075,-0.002 0.03544,0 0.005,0.002 0.0068,0.009 0.0118,0.0118 0.0035,0.002 0.0083,-0.002 0.01183,0 0.005,0.002 0.0064,0.0105 0.0118,0.0118 0.01146,0.003 0.02384,-0.002 0.03543,0 0.0086,0.002 0.01574,0.008 0.02363,0.0118 0.0079,0.004 0.01574,0.008 0.02363,0.0118 0.03476,0.0174 0.01527,0.009 0.05906,0.0236 0.04708,0.0157 0.09403,0.0336 0.141743,0.0473 0.06965,0.0199 0.141401,0.0343 0.212611,0.0472 0.08983,0.0163 0.181028,0.0248 0.271669,0.0354 0.03541,0.004 0.07109,0.006 0.106307,0.0118 0.03966,0.006 0.07841,0.0177 0.118118,0.0236 0.03913,0.006 0.07877,0.008 0.118118,0.0118 0.03546,0.004 0.0709,0.008 0.106304,0.0118 0.03153,0.004 0.06346,0.005 0.0945,0.0118 0.10446,0.0224 0.03472,0.0248 0.129929,0.0354 0.03913,0.004 0.07894,-0.004 0.118118,0 0.01614,0.002 0.03123,0.009 0.04725,0.0118 0.01124,0.002 0.05203,-0.003 0.05906,0 0.01035,0.004 0.01307,0.0201 0.02363,0.0236 0.01495,0.005 0.0315,0 0.04725,0 0.01968,0 0.03937,0 0.05906,0 0.01183,0 0.02379,-0.002 0.03544,0 0.01228,0.002 0.02312,0.0101 0.03543,0.0118 0.12342,0 -0.01807,-0.005 0.08268,0.0118 0.01164,0.002 0.02363,0 0.03544,0 0.0118,0 0.02363,0 0.03544,0 0.0315,0 0.06299,0 0.09449,0 0.05118,0 0.10237,0 0.153554,0 0.01574,0 0.0315,0 0.04725,0 0.01574,0 0.03159,0.002 0.04725,0 0.01995,-0.002 0.0391,-0.01 0.05906,-0.0118 0.01566,-0.002 0.0315,0 0.04725,0 0.03543,0 0.07087,0 0.106304,0 0.01968,0 0.03949,0.002 0.05906,0 0.01614,-0.002 0.03111,-0.01 0.04725,-0.0118 0.01955,-0.002 0.03937,0 0.05906,0 0.01574,0 0.03197,0.004 0.04725,0 0.01709,-0.004 0.03017,-0.0194 0.04725,-0.0236 0.01527,-0.004 0.0316,0.002 0.04725,0 0.01995,-0.002 0.03911,-0.01 0.05906,-0.0118 0.01566,-0.002 0.03159,0.002 0.04725,0 0.01995,-0.002 0.0391,-0.01 0.05906,-0.0118 0.01566,-0.002 0.03159,0.002 0.04725,0 0.03562,-0.004 0.0714,-0.0159 0.106304,-0.0236 0.0196,-0.004 0.03958,-0.007 0.05906,-0.0118 0.01206,-0.003 0.02307,-0.0103 0.03544,-0.0118 0.01953,-0.002 0.03937,0 0.05906,0 0.01574,0 0.03187,0.003 0.04725,0 0.02069,-0.005 0.03836,-0.019 0.05906,-0.0236 0.01537,-0.003 0.03156,0.001 0.04725,0 0.02773,-0.003 0.05517,-0.008 0.08268,-0.0118 0.07478,-0.0115 0.149974,-0.0219 0.224423,-0.0354 0.01976,-0.004 0.0391,-0.01 0.05906,-0.0118 0.01566,-0.002 0.0315,0 0.04725,0 0.01969,0 0.03937,0 0.05906,0 0.05512,0 0.110244,0 0.165365,0 0.063,0 0.125992,0 0.188989,0 0.01209,0 0.08473,-0.002 0.09449,0 0.0085,0.002 0.015,0.0101 0.02363,0.0118 0.01159,0.002 0.02363,0 0.03543,0 0.03544,0 0.07087,0 0.106307,0 0.0079,0 0.01598,-0.002 0.02363,0 0.0085,0.002 0.01497,0.0101 0.02363,0.0118 0.01931,0.004 0.03937,0 0.05906,0 0.04331,0 0.08662,0 0.129929,0 0.0315,0 0.063,0 0.09449,0 0.0118,0 0.02384,0.002 0.03543,0 0.0086,-0.002 0.01508,-0.01 0.02363,-0.0118 0.02963,-0.007 0.01762,0.007 0.04725,0 0.0085,-0.002 0.01527,-0.009 0.02363,-0.0118 0.0037,-0.001 0.0083,0.002 0.0118,0 0.005,-0.002 0.0065,-0.0101 0.01183,-0.0118 0.0075,-0.002 0.01614,0.002 0.02363,0 0.0053,-0.002 0.0065,-0.0101 0.01183,-0.0118 0.01061,-0.007 0.02424,0.004 0.03543,0 0.0084,-0.003 0.01527,-0.009 0.02363,-0.0118 0.01119,-0.004 0.02397,0.003 0.03543,0 0.0085,-0.002 0.01508,-0.01 0.02363,-0.0118 0.0076,-0.002 0.01598,0.002 0.02363,0 0.0085,-0.002 0.015,-0.0101 0.02363,-0.0118 0.01159,-0.002 0.02397,0.003 0.03543,0 0.0054,-0.001 0.0072,-0.009 0.01183,-0.0118 0.0073,-0.005 0.01574,-0.008 0.02363,-0.0118 0.0079,-0.004 0.01508,-0.01 0.02363,-0.0118 0.0076,-0.002 0.01598,0.002 0.02363,0 0.03426,-0.009 0.01384,-0.009 0.03544,-0.0236 0.006,-0.026 0.02429,-0.006 0.03543,-0.0118 0.005,-0.002 0.0068,-0.009 0.0118,-0.0118 0.0035,-0.002 0.0083,0.002 0.01183,0 0.005,-0.002 0.0068,-0.009 0.0118,-0.0118 0.0035,-0.002 0.009,0.003 0.0118,0 0.0028,-0.003 -0.0028,-0.009 0,-0.0118 0.0028,-0.003 0.0083,0.002 0.01183,0 0.01048,-0.005 0.02469,-0.0283 0.03543,-0.0354 0.0073,-0.005 0.0163,-0.007 0.02363,-0.0118 0.01019,-0.007 0.02622,-0.0262 0.03543,-0.0354 0.02363,-0.0236 0.04725,-0.0472 0.07087,-0.0709 0.0062,-0.006 0.02913,-0.0323 0.03543,-0.0354 0.0035,-0.002 0.0083,0.002 0.01183,0 0.005,-0.002 0.0068,-0.009 0.0118,-0.0118 0.0074,-0.004 0.03982,0.004 0.04725,0 0.005,-0.002 0.0068,-0.009 0.0118,-0.0118 0.007,-0.004 0.01807,0.006 0.02363,0 0.0028,-0.003 -0.0028,-0.009 0,-0.0118 0.0056,-0.006 0.01659,0.004 0.02363,0 0.0055,-0.003 0.0403,-0.0403 0.04725,-0.0473 0.0039,-0.004 0.0068,-0.009 0.0118,-0.0118 0.0064,-0.003 0.04402,0.003 0.04725,0 0.0028,-0.003 -0.0028,-0.009 0,-0.0118 0.0056,-0.006 0.01659,0.004 0.02363,0 0.005,-0.002 0.0068,-0.009 0.0118,-0.0118 0.0035,-0.002 0.009,0.003 0.0118,0 0.0056,-0.006 -0.0035,-0.0166 0,-0.0236 0.0024,-0.005 0.0093,-0.007 0.01183,-0.0118 0.0035,-0.007 -0.0035,-0.0166 0,-0.0236 0.0024,-0.005 0.0093,-0.007 0.0118,-0.0118 0.0019,-0.004 -0.0028,-0.009 0,-0.0118 0.0028,-0.003 0.009,0.003 0.0118,0 0.0028,-0.003 -0.0019,-0.008 0,-0.0118 0.0024,-0.005 0.0093,-0.007 0.0118,-0.0118 0.0019,-0.004 -0.0019,-0.008 0,-0.0118 0.0024,-0.005 0.0093,-0.007 0.01183,-0.0118 0.0019,-0.004 -0.0019,-0.008 0,-0.0118 0.0024,-0.005 0.0093,-0.007 0.0118,-0.0118 0.0035,-0.007 -0.0035,-0.0166 0,-0.0236 0.0024,-0.005 0.0093,-0.007 0.0118,-0.0118 0.0047,-0.009 -0.0047,-0.026 0,-0.0354 0.0024,-0.005 0.0093,-0.007 0.01183,-0.0118 0.0019,-0.004 0,-0.0301 0,-0.0354 0,-0.0197 0,-0.0394 0,-0.0591 0,-0.004 0,-0.008 0,-0.0118 0,-0.004 0.0019,-0.008 0,-0.0118 -0.0024,-0.005 -0.0093,-0.007 -0.01183,-0.0118 -0.0019,-0.004 0.0019,-0.008 0,-0.0118 -0.005,-0.01 -0.01744,-0.0144 -0.02363,-0.0236 -0.0098,-0.0146 -0.01386,-0.0326 -0.02363,-0.0472 -0.0068,-0.0102 -0.02622,-0.0262 -0.03544,-0.0354 -0.0118,-0.0118 -0.02363,-0.0236 -0.03544,-0.0354 -0.0039,-0.004 -0.0072,-0.009 -0.0118,-0.0118 -0.0073,-0.005 -0.0163,-0.007 -0.02363,-0.0118 -0.0046,-0.003 -0.0072,-0.009 -0.01183,-0.0118 -0.0073,-0.005 -0.01574,-0.008 -0.02363,-0.0118 -0.0079,-0.004 -0.01545,-0.009 -0.02363,-0.0118 -0.04236,-0.0169 -0.08529,-0.0265 -0.129929,-0.0354 -0.01969,-0.004 -0.04019,-0.005 -0.05906,-0.0118 -0.02482,-0.009 -0.04605,-0.0264 -0.07087,-0.0354 -0.01886,-0.007 -0.03969,-0.007 -0.05906,-0.0118 -0.129553,-0.0353 -0.01849,-0.0133 -0.118115,-0.0354 -0.01961,-0.004 -0.03931,-0.008 -0.05906,-0.0118 -0.02357,-0.004 -0.04763,-0.006 -0.07087,-0.0118 -0.02416,-0.006 -0.04684,-0.0171 -0.07087,-0.0236 -0.01937,-0.005 -0.03926,-0.009 -0.05906,-0.0118 -0.0489,-0.008 -0.1294,-0.0176 -0.177175,-0.0236 -0.0315,-0.004 -0.06323,-0.006 -0.09449,-0.0118 -0.03575,-0.006 -0.07045,-0.018 -0.106307,-0.0236 -0.0743,-0.0117 -0.150034,-0.0125 -0.224422,-0.0236 -0.04353,-0.007 -0.08662,-0.0157 -0.129929,-0.0236 -0.126098,-0.0229 -0.251555,-0.0498 -0.377978,-0.0709 -0.05108,-0.009 -0.102632,-0.0142 -0.153551,-0.0236 -0.05543,-0.0103 -0.109649,-0.0269 -0.165365,-0.0354 -0.04686,-0.007 -0.0951,-0.003 -0.141742,-0.0118 -0.04044,-0.007 -0.07751,-0.029 -0.118118,-0.0354 -0.035,-0.006 -0.07087,0 -0.106305,0 -0.03543,-0.004 -0.07126,-0.005 -0.106307,-0.0118 -0.02817,-0.005 -0.05465,-0.0176 -0.08268,-0.0236 -0.02722,-0.006 -0.05567,-0.005 -0.08268,-0.0118 -0.07247,-0.0181 -0.140941,-0.0498 -0.212611,-0.0709 -0.03115,-0.009 -0.06289,-0.0162 -0.09449,-0.0236 -0.03534,-0.008 -0.07204,-0.0116 -0.106307,-0.0236 -0.0449,-0.0157 -0.08497,-0.0435 -0.129928,-0.0591 -0.05776,-0.02 -0.119005,-0.0285 -0.177176,-0.0472 -0.06403,-0.0207 -0.125161,-0.0496 -0.188989,-0.0709 -0.07799,-0.026 -0.157867,-0.046 -0.236234,-0.0709 -0.08308,-0.0264 -0.164621,-0.0575 -0.248046,-0.0827 -0.08594,-0.026 -0.171898,-0.0529 -0.259861,-0.0709 -0.08565,-0.0175 -0.173276,-0.0234 -0.259858,-0.0354 -0.08272,-0.0115 -0.165364,-0.0236 -0.248047,-0.0354 -0.08268,-0.0118 -0.165661,-0.0217 -0.248047,-0.0354 -0.77661,-0.12944 0.170374,0.02 -0.425222,-0.0827 -0.05487,-0.009 -0.110384,-0.0148 -0.165365,-0.0236 -0.306101,-0.049 0.01916,0.002 -0.224424,-0.0472 -0.0273,-0.005 -0.05546,-0.006 -0.08268,-0.0118 -0.05605,-0.012 -0.109749,-0.0334 -0.165364,-0.0473 -0.01947,-0.005 -0.03983,-0.006 -0.05906,-0.0118 -0.02032,-0.006 -0.03894,-0.0169 -0.05906,-0.0236 -0.0154,-0.005 -0.0317,-0.007 -0.04725,-0.0118 -0.02384,-0.007 -0.04702,-0.0165 -0.07087,-0.0236 -0.01556,-0.005 -0.0317,-0.007 -0.04725,-0.0118 -0.09935,-0.0298 -0.03885,-0.0189 -0.129929,-0.0354 -0.02357,-0.004 -0.0472,-0.008 -0.07087,-0.0118 -0.02752,-0.004 -0.05546,-0.006 -0.08268,-0.0118 -0.188917,-0.0405 0.03997,-0.0125 -0.2008,-0.0354 -0.04329,-0.004 -0.08662,-0.008 -0.129929,-0.0118 -0.04331,-0.004 -0.08762,-0.002 -0.129931,-0.0118 -0.04125,-0.01 -0.0775,-0.0351 -0.118116,-0.0472 -0.03456,-0.0104 -0.234225,-0.044 -0.25986,-0.0472 -0.04704,-0.006 -0.09488,-0.005 -0.14174,-0.0118 -0.31369,-0.0483 -0.02008,-0.0211 -0.318918,-0.0709 -0.0429,-0.007 -0.08684,-0.006 -0.129929,-0.0118 -0.04362,-0.006 -0.08613,-0.0192 -0.129929,-0.0236 -0.03526,-0.004 -0.07092,0.002 -0.106307,0 -0.0356,-0.002 -0.07071,-0.01 -0.106304,-0.0118 -0.0629,-0.004 -0.125992,0 -0.18899,0 -0.106304,0 -0.212611,0 -0.318918,0 -0.04331,0 -0.08662,0 -0.129929,0 -0.01969,0 -0.03937,0 -0.05906,0 -0.01574,0 -0.03162,-0.002 -0.04725,0 -0.01611,0.002 -0.03114,0.01 -0.04725,0.0118 -0.03871,0.005 -0.09182,-0.005 -0.12993,0 -0.01233,0.002 -0.02308,0.0103 -0.03544,0.0118 -0.01953,0.002 -0.03949,-0.002 -0.05906,0 -0.01613,0.002 -0.03114,0.01 -0.04725,0.0118 -0.01563,0.002 -0.03159,-0.002 -0.04725,0 -0.01995,0.002 -0.0391,0.01 -0.05906,0.0118 -0.01565,0.002 -0.03162,-0.002 -0.04725,0 -0.01611,0.002 -0.03118,0.01 -0.04725,0.0118 -0.01169,0.002 -0.02362,0 -0.03544,0 -0.0079,0 -0.01707,-0.004 -0.02362,0 -0.0073,0.005 -0.0045,0.0187 -0.01181,0.0236 -0.03544,0.0236 -0.01181,-0.0118 -0.03544,0 -0.005,0.002 -0.0068,0.009 -0.01181,0.0118 -0.007,0.004 -0.01658,-0.004 -0.02362,0 -0.005,0.002 -0.0065,0.0101 -0.01181,0.0118 -0.0075,0.002 -0.01615,-0.002 -0.02362,0 -0.0053,0.002 -0.0072,0.009 -0.01181,0.0118 -0.0073,0.005 -0.0163,0.007 -0.02362,0.0118 -0.0093,0.006 -0.01575,0.0157 -0.02362,0.0236 -0.01575,0.0157 -0.0315,0.0315 -0.04725,0.0472 -0.0079,0.008 -0.01436,0.0174 -0.02362,0.0236 -0.0073,0.005 -0.0163,0.007 -0.02362,0.0118 -0.0046,0.003 -0.0072,0.009 -0.01181,0.0118 -0.01465,0.01 -0.0326,0.0139 -0.04725,0.0236 -0.0093,0.006 -0.01575,0.0157 -0.02363,0.0236 -0.01575,0.0157 -0.0315,0.0315 -0.04725,0.0472 -0.0039,0.004 -0.0079,0.008 -0.01181,0.0118 -0.0039,0.004 -0.0068,0.009 -0.01181,0.0118 -0.0035,0.002 -0.0083,-0.002 -0.01181,0 -0.0031,0.002 -0.03387,0.0323 -0.03543,0.0354 -0.0018,0.004 0.0028,0.009 0,0.0118 -0.0028,0.003 -0.009,-0.003 -0.01181,0 -0.0028,0.003 0.0028,0.009 0,0.0118 -0.0028,0.003 -0.009,-0.003 -0.01181,0 -0.0028,0.003 0.0018,0.008 0,0.0118 -0.0025,0.005 -0.0093,0.007 -0.01181,0.0118 -0.0018,0.004 0.0028,0.009 0,0.0118 -0.0028,0.003 -0.009,-0.003 -0.01181,0 -0.0028,0.003 0.0018,0.008 0,0.0118 -0.005,0.01 -0.01864,0.0137 -0.02362,0.0236 -0.0018,0.004 0.0018,0.008 0,0.0118 -0.0071,0.0142 -0.02835,0.0213 -0.03543,0.0354 -0.0018,0.004 0.0028,0.009 0,0.0118 -0.0028,0.003 -0.009,-0.003 -0.01181,0 -0.0028,0.003 0.0028,0.009 0,0.0118 -0.0315,0 0.0039,-0.004 -0.01181,0.0118 -0.0028,0.003 -0.009,-0.003 -0.01181,0 -0.0028,0.003 0.0028,0.009 0,0.0118 -0.0028,0.003 -0.0083,-0.002 -0.01181,0 -0.005,0.002 -0.0062,0.0118 -0.01181,0.0118 -0.01624,0 -0.0315,-0.008 -0.04725,-0.0118 z"
           id="path4700"
           inkscape:connector-curvature="0" />
        <path
           id="path4720"
           style="fill:#ffd793;fill-opacity:1;stroke:#ffd182;stroke-width:0.26458332px;stroke-linecap:butt;stroke-linejoin:miter;stroke-opacity:1"
           d="m 105.31623,118.13163 c 1.17856,0.27462 2.07625,2.49523 2.07625,2.49523 m 7.64157,-23.267463 c 0.29327,-0.181821 0.62538,-0.365507 0.98103,-0.450546 m 18.90284,1.63942 c -1.51971,-0.887731 -3.38278,-1.791522 -5.00343,-1.970437 m -17.51758,59.917386 c 0.2572,2.09257 5.55583,14.56279 10.88116,12.81676 4.97521,-1.63123 1.10248,-15.66868 1.10248,-15.66868 l -0.0334,0.0334 v 0 m -99.29804,4.81087 c -0.06682,1.97111 1.452473,13.08479 6.247423,12.96256 4.202737,-0.10714 4.88982,-11.62583 4.88982,-11.62583 v 0 M 124.49591,91.853439 c -0.15065,0.518328 -0.11843,0.891351 -0.11843,0.891351 m -93.415648,25.43876 c 0,0 -1.001962,-1.25258 -1.602093,-1.97526 1.591554,-1.33661 51.946246,-3.97653 75.956491,1.92334 -0.21297,-7.48088 -0.10323,-16.01004 9.71782,-20.772232 -1.5382,-3.388196 -1.05871,-13.953484 2.28031,-14.341151 1.9818,0.111231 6.48346,7.98677 7.18155,8.835194 0.12273,-0.627868 2.36944,-8.836425 4.44121,-8.976935 2.75742,0.127007 7.42877,13.100416 5.9808,15.671765 0.87289,0.462331 2.88623,1.878499 3.92671,3.211339 1.71205,2.19311 3.15534,4.8544 3.55803,7.55036 l 7.61718,0.33411 c 3.65583,0.12737 6.82602,-0.11482 6.60189,2.50061 -0.71786,8.37676 -7.21419,12.977 -13.41726,13.13466 -2.57697,12.93806 -11.09023,23.69826 -19.2199,28.5725 -4.05823,2.43316 -10.75646,2.55605 -11.58766,2.64337 m -0.29949,-2.4559 c 0.28194,2.26558 1.1466,16.52151 -4.11226,17.57266 -5.65778,1.13087 -7.47622,-14.89355 -7.43834,-16.61694 m 0.14174,2.50409 c -1.140739,0.0737 -51.524217,1.90134 -51.524217,1.90134 m -0.283482,-2.8112 c 0.487383,3.31879 0.684797,16.47659 -4.882418,16.60143 -4.498006,0.10087 -7.958441,-13.18073 -8.190067,-16.24847 m 0.377977,2.88207 c 0,0 -5.787552,0.68108 -8.925977,-0.42798 -5.518845,-1.95027 -10.322016,-6.7671 -12.421453,-11.46354 -4.194624,-9.38338 -1.241834,-23.97097 5.690605,-29.37945 -1.291041,-1.33635 -5.82193,-7.99949 -4.915837,-9.03847 1.055159,-2.08855 6.359532,-1.47334 13.746048,6.69343 m -8.830211,2.34504 c 0.393952,0.4388 1.064389,1.871 1.400832,2.45121 m 95.71473,-34.702645 c -2.07985,0.713756 -0.66081,9.286901 0.11951,8.937101 0,0 4.44823,-0.53454 4.99157,-0.605412 0.54334,-0.07087 -4.57338,-8.516213 -5.11108,-8.331689 z"
           inkscape:connector-curvature="0"
           sodipodi:nodetypes="cccccccscccccccccccccccccsccccscccccccccccsccccccccc" />
        <path
           style="fill:none;stroke:#000000;stroke-width:0.565;stroke-linecap:butt;stroke-linejoin:miter;stroke-miterlimit:4;stroke-dasharray:none;stroke-opacity:1"
           d="m 144.50741,124.94526 c -2.82312,0.2973 -5.02769,-0.90026 -5.29496,-1.76889"
           id="path4692"
           inkscape:connector-curvature="0"
           sodipodi:nodetypes="cc" />
        <rect
           style="fill:#020201;fill-opacity:1;stroke:#010101;stroke-width:0.56499994;stroke-miterlimit:4;stroke-dasharray:none;stroke-opacity:1"
           id="rect4716"
           width="2.9886019"
           height="6.8365808"
           x="128.98521"
           y="103.74959"
           ry="2.0956597" />
        <path
           style="fill:none;stroke:#ffffff;stroke-width:0.26458332px;stroke-linecap:butt;stroke-linejoin:miter;stroke-opacity:1"
           d="m 106.20014,107.90867 c 0.14857,0.033 0.23885,0.23677 0.30628,0.32189 8.43117,10.64235 28.94845,13.09434 45.9188,12.71597 0.095,-0.002 -0.0413,-0.0532 0.16055,0.11149"
           id="path4718"
           inkscape:connector-curvature="0"
           sodipodi:nodetypes="cssc" />
        <path
           style="fill:#000000;fill-opacity:1;stroke:#000000;stroke-width:0.26458332px;stroke-linecap:butt;stroke-linejoin:miter;stroke-opacity:1"
           d="m 149.16929,109.60356 c -0.30363,1.21017 2.74022,5.30896 6.71045,6.18048 0.57909,-2.01521 2.49779,-5.83851 -2.3092,-6.01218 z"
           id="path4694"
           inkscape:connector-curvature="0"
           sodipodi:nodetypes="cccc" />
        <path
           style="fill:none;stroke:#ffffff;stroke-width:0.26458332px;stroke-linecap:butt;stroke-linejoin:miter;stroke-opacity:1"
           d="m 107.39248,120.62686 c 3.16156,6.57878 3.17162,12.49414 3.58169,13.78802 0.54,2.86484 1.41495,5.3688 1.64783,10.2879 0.23288,4.9191 -0.52458,9.33654 -0.52458,9.33654 v 0 0"
           id="path4723"
           inkscape:connector-curvature="0"
           sodipodi:nodetypes="cczccc" />
        <path
           style="fill:#ffffff;fill-opacity:1;stroke:#ffffff;stroke-width:0.7626546;stroke-miterlimit:4;stroke-dasharray:none;stroke-opacity:1"
           d="m 424.74038,590.56517 c -0.12286,-0.32017 -0.23296,-1.57345 -0.24467,-2.78507 -0.0117,-1.21161 -0.14607,-2.96054 -0.29857,-3.8865 -0.15251,-0.92596 -0.1599,-1.80989 -0.0164,-1.96429 0.32123,-0.34567 1.28669,-8.60594 1.76516,-15.10214 0.45847,-6.22477 0.45674,-18.97622 -0.003,-24.85885 -0.63617,-8.13337 -1.51947,-13.57294 -4.28554,-26.39115 -1.14447,-5.30357 -2.42077,-12.13393 -2.83622,-15.17857 -2.66057,-19.49795 -6.91704,-34.36741 -13.18787,-46.07019 -1.88701,-3.52159 -4.7611,-7.03003 -6.5838,-8.03695 -0.59881,-0.3308 -0.64621,-1.05529 -0.64262,-9.82143 0.005,-11.75195 0.67791,-19.17012 2.45949,-27.1058 l 0.27231,-1.21294 1.05825,1.39151 c 3.17261,4.17172 9.55286,10.29078 15.10352,14.4852 23.94008,18.09064 64.31353,29.67926 114.18125,32.77408 12.08021,0.74971 14.73255,0.8445 29.56481,1.0566 l 15.27908,0.21849 -2.72186,2.32143 c -6.80974,5.80792 -14.96191,9.86538 -23.30609,11.5998 -3.48239,0.72384 -3.99451,0.70189 -3.99451,-0.17123 0,-0.66162 -0.2381,-0.71428 -3.22934,-0.71428 -6.10211,0 -12.52236,-2.07127 -14.93393,-4.81789 -1.05544,-1.20208 -1.15976,-1.24035 -2.21118,-0.81115 l -1.10347,0.45046 0.83802,1.25 c 1.7517,2.61282 7.12886,5.23588 12.42562,6.06138 1.27678,0.19899 2.42231,0.36301 2.54561,0.3645 0.31102,0.004 -1.25609,6.62599 -3.08545,13.03841 -10.75878,37.71241 -36.79723,73.92279 -66.89287,93.02456 -10.52219,6.67846 -20.63309,9.31588 -43.14748,11.255 -2.15307,0.18543 -2.57883,0.1296 -2.76786,-0.36299 z"
           id="path4725"
           inkscape:connector-curvature="0"
           transform="scale(0.26458333)" />
      </g>
      <path
         sodipodi:nodetypes="cc"
         inkscape:connector-curvature="0"
         id="path828"
         d="m 126.00781,244.52037 c 1.26123,2.78308 5.09477,3.09286 6.73974,3.36887"
         style="fill:none;stroke:#000000;stroke-width:1.26499999;stroke-linecap:butt;stroke-linejoin:miter;stroke-miterlimit:4;stroke-dasharray:none;stroke-opacity:1" />
    </g>
  </g>
</svg>
