<?xml version="1.0" encoding="UTF-8" standalone="no"?>
<svg
   xmlns:dc="http://purl.org/dc/elements/1.1/"
   xmlns:cc="http://creativecommons.org/ns#"
   xmlns:rdf="http://www.w3.org/1999/02/22-rdf-syntax-ns#"
   xmlns:svg="http://www.w3.org/2000/svg"
   xmlns="http://www.w3.org/2000/svg"
   id="svg1002"
   version="1.1"
   viewBox="0 0 100 100.01958"
   height="100.01958mm"
   width="100mm">
  <defs
     id="defs996" />
  <metadata
     id="metadata999">
    <rdf:RDF>
      <cc:Work
         rdf:about="">
        <dc:format>image/svg+xml</dc:format>
        <dc:type
           rdf:resource="http://purl.org/dc/dcmitype/StillImage" />
        <dc:title></dc:title>
      </cc:Work>
    </rdf:RDF>
  </metadata>
  <g
     transform="translate(-27.508163,-51.440163)"
     id="layer1">
    <circle
       style="fill:#000000;fill-opacity:1;stroke:none;stroke-width:2.19299984;stroke-miterlimit:4;stroke-dasharray:none;stroke-opacity:1"
       id="path952"
       cx="77.508163"
       cy="101.44016"
       r="50" />
    <path
       style="fill:#ffffff;fill-opacity:1;stroke:none;stroke-width:0.32357854px;stroke-linecap:butt;stroke-linejoin:miter;stroke-opacity:1"
       d="m 49.276355,87.484563 c -3.361949,-10.38764 -3.133869,-31.70801 13.569468,-8.76218 27.089347,-0.40265 0,0 27.089347,-0.40265 17.7156,-22.902372 17.60829,-1.22281 14.73546,9.78492 z"
       id="path960" />
    <rect
       style="fill:#ffffff;fill-opacity:1;stroke:none;stroke-width:2.6819818;stroke-miterlimit:4;stroke-dasharray:none;stroke-opacity:1"
       id="rect958"
       width="61.629066"
       height="40.596928"
       x="45.914406"
       y="77.096916"
       rx="21.276716"
       ry="17.11919" />
    <rect
       style="fill:#ffffff;fill-opacity:1;stroke:none;stroke-width:2.6819818;stroke-miterlimit:4;stroke-dasharray:none;stroke-opacity:1"
       id="rect962"
       width="35.17218"
       height="30.724453"
       x="58.856956"
       y="120.73528"
       rx="7.6360149"
       ry="14.748014" />
    <rect
       style="fill:#ffffff;fill-opacity:1;stroke:none;stroke-width:2.6819818;stroke-miterlimit:4;stroke-dasharray:none;stroke-opacity:1"
       id="rect964"
       width="19.809347"
       height="30.692247"
       x="66.701981"
       y="112.55807"
       rx="0"
       ry="0.73368561" />
    <path
       style="fill:#ffffff;fill-opacity:1;stroke:#fefefe;stroke-width:0.26458332px;stroke-linecap:butt;stroke-linejoin:miter;stroke-opacity:1"
       d="m 61.313035,129.01485 c -4.807638,-0.1414 -8.908269,0.5656 -11.594891,-2.82803 -2.686621,-3.39362 -4.949039,-4.24203 -8.059864,-5.09044 -3.110823,-0.8484 4.949039,4.38344 7.070056,8.20127 2.121016,3.81783 12.584699,2.96942 12.584699,2.96942 z"
       id="path966" />
    <rect
       ry="0"
       y="132.48586"
       x="58.869789"
       height="18.973881"
       width="35.112099"
       id="rect1057"
       style="fill:#ffffff;fill-opacity:1;stroke:none;stroke-width:0.81631058;stroke-miterlimit:4;stroke-dasharray:none;stroke-opacity:1" />
  </g>
</svg>
